<?xml version="1.0" encoding="UTF-8" standalone="no"?>
<svg
   xmlns:dc="http://purl.org/dc/elements/1.1/"
   xmlns:cc="http://creativecommons.org/ns#"
   xmlns:rdf="http://www.w3.org/1999/02/22-rdf-syntax-ns#"
   xmlns:svg="http://www.w3.org/2000/svg"
   xmlns="http://www.w3.org/2000/svg"
   xmlns:sodipodi="http://sodipodi.sourceforge.net/DTD/sodipodi-0.dtd"
   xmlns:inkscape="http://www.inkscape.org/namespaces/inkscape"
   width="670"
   height="650"
   viewBox="0 0 177.27083 171.97917"
   version="1.1"
   id="svg8"
   inkscape:version="1.0.2 (e86c870879, 2021-01-15, custom)"
   sodipodi:docname="diagram.svg">
  <defs
     id="defs2">
    <rect
       x="80.715401"
       y="2.1381562"
       width="71.093697"
       height="29.934187"
       id="rect849" />
    <rect
       x="80.715401"
       y="2.1381562"
       width="71.093697"
       height="29.934187"
       id="rect849-6" />
    <rect
       x="80.715401"
       y="2.1381562"
       width="71.093697"
       height="29.934187"
       id="rect862" />
    <rect
       x="80.715401"
       y="2.1381562"
       width="71.093697"
       height="29.934187"
       id="rect849-4" />
    <rect
       x="80.715401"
       y="2.1381562"
       width="71.093697"
       height="29.934187"
       id="rect898" />
    <rect
       x="80.715401"
       y="2.1381562"
       width="71.093697"
       height="29.934187"
       id="rect849-4-2" />
    <rect
       x="80.715401"
       y="2.1381562"
       width="71.093697"
       height="29.934187"
       id="rect934" />
  </defs>
  <sodipodi:namedview
     id="base"
     pagecolor="#ffffff"
     bordercolor="#666666"
     borderopacity="1.0"
     inkscape:pageopacity="0.0"
     inkscape:pageshadow="2"
     inkscape:zoom="1"
     inkscape:cx="306.99342"
     inkscape:cy="354.27676"
     inkscape:document-units="mm"
     inkscape:current-layer="layer1"
     inkscape:document-rotation="0"
     showgrid="false"
     units="px"
     showguides="false"
     inkscape:window-width="1920"
     inkscape:window-height="1017"
     inkscape:window-x="-8"
     inkscape:window-y="-8"
     inkscape:window-maximized="1" />
  <metadata
     id="metadata5">
    <rdf:RDF>
      <cc:Work
         rdf:about="">
        <dc:format>image/svg+xml</dc:format>
        <dc:type
           rdf:resource="http://purl.org/dc/dcmitype/StillImage" />
        <dc:title />
      </cc:Work>
    </rdf:RDF>
  </metadata>
  <g
     inkscape:label="Layer 1"
     inkscape:groupmode="layer"
     id="layer1">
    <path
       id="rect975-6"
       style="fill:#aaeeff;fill-opacity:1;stroke:none;stroke-width:0;stroke-linecap:round;stroke-miterlimit:4;stroke-dasharray:none;stroke-opacity:1"
       d="M 130.77845,84.85709 87.7698,77.611781 v 80.614599 h 85.46061 z"
       sodipodi:nodetypes="ccccc" />
    <path
       id="rect975"
       style="fill:#ffaaaa;fill-opacity:1;stroke:none;stroke-width:0;stroke-linecap:round;stroke-miterlimit:4;stroke-dasharray:none;stroke-opacity:1"
       d="M 46.282674,84.857087 88.64367,78.924108 V 158.22638 H 3.8307051 Z"
       sodipodi:nodetypes="ccccc" />
    <path
       id="rect970"
       style="fill:#ffeeaa;fill-opacity:1;stroke:none;stroke-width:1.31416;stroke-linecap:round;stroke-miterlimit:4;stroke-dasharray:none;stroke-opacity:1"
       d="M 88.6439,13.991205 130.77845,84.85709 88.690311,109.28986 46.282674,84.857087 Z"
       sodipodi:nodetypes="ccccc" />
    <path
       sodipodi:type="star"
       style="fill:none;stroke:#000000;stroke-width:0.812103;stroke-linecap:round;stroke-miterlimit:4;stroke-dasharray:none;stroke-opacity:1"
       id="path845"
       sodipodi:sides="3"
       sodipodi:cx="82.882324"
       sodipodi:cy="90.912895"
       sodipodi:r1="74.626129"
       sodipodi:r2="37.313065"
       sodipodi:arg1="0.52936344"
       sodipodi:arg2="1.576561"
       inkscape:flatsided="true"
       inkscape:rounded="0"
       inkscape:randomized="0"
       d="M 147.29428,128.5979 18.040178,127.85278 83.312516,16.288006 Z"
       inkscape:transform-center-x="0.0028247713"
       inkscape:transform-center-y="-24.037606"
       transform="matrix(1.3161842,-0.00735403,0.00751186,1.2885352,-21.133061,-6.3837806)" />
    <g
       aria-label="Libertarian"
       transform="matrix(0.99991563,0,0,1.0020693,-20.742217,-1.1152431)"
       id="text847"
       style="font-style:normal;font-weight:normal;font-size:10.5833px;line-height:1.25;font-family:sans-serif;letter-spacing:0px;word-spacing:0px;white-space:pre;shape-inside:url(#rect849);fill:#000000;fill-opacity:1;stroke:none">
      <path
         d="M 86.616274,11.794137 H 81.748369 V 4.0995407 h 1.02319 v 6.7850943 h 3.844715 z"
         style="font-style:normal;font-variant:normal;font-weight:normal;font-stretch:normal;font-family:Verdana;-inkscape-font-specification:Verdana"
         id="path1715" />
      <path
         d="M 88.60581,5.0555517 H 87.510273 V 4.0478644 h 1.095537 z m -0.06201,6.7385853 H 87.572285 V 6.0218979 h 0.971513 z"
         style="font-style:normal;font-variant:normal;font-weight:normal;font-stretch:normal;font-family:Verdana;-inkscape-font-specification:Verdana"
         id="path1717" />
      <path
         d="m 95.545933,8.8640926 q 0,0.7234678 -0.206705,1.3022424 -0.201537,0.578774 -0.547768,0.971513 -0.366902,0.408243 -0.80615,0.614948 -0.439248,0.201537 -0.966346,0.201537 -0.490925,0 -0.857826,-0.118855 Q 91.794236,11.72179 91.43767,11.52542 l -0.06201,0.268717 H 90.466156 V 3.7533097 h 0.971514 v 2.8732005 q 0.408242,-0.3358957 0.868161,-0.5477684 0.459919,-0.2170404 1.033526,-0.2170404 1.02319,0 1.612299,0.7854793 0.594277,0.7854793 0.594277,2.2169119 z m -1.002519,0.025838 q 0,-1.0335253 -0.341064,-1.5657909 -0.341063,-0.5374332 -1.100704,-0.5374332 -0.423746,0 -0.857826,0.1860346 -0.434081,0.1808669 -0.80615,0.470254 v 3.3072808 q 0.41341,0.186035 0.707965,0.258382 0.299722,0.07235 0.676959,0.07235 0.80615,0 1.260901,-0.527097 0.459919,-0.532266 0.459919,-1.6639763 z"
         style="font-style:normal;font-variant:normal;font-weight:normal;font-stretch:normal;font-family:Verdana;-inkscape-font-specification:Verdana"
         id="path1719" />
      <path
         d="m 101.89178,9.0087862 h -4.252959 q 0,0.5322655 0.160197,0.9301728 0.160196,0.39274 0.439248,0.645953 0.268717,0.248046 0.635618,0.372069 0.372069,0.124023 0.816485,0.124023 0.589111,0 1.183391,-0.232543 0.59944,-0.237711 0.85265,-0.465086 h 0.0517 v 1.059363 q -0.49092,0.206705 -1.00252,0.346231 -0.51159,0.139526 -1.074865,0.139526 -1.436601,0 -2.24275,-0.775144 -0.80615,-0.780311 -0.80615,-2.211744 0,-1.4159297 0.769976,-2.2479176 0.775144,-0.831988 2.036045,-0.831988 1.167884,0 1.798334,0.6821268 0.63562,0.6821267 0.63562,1.93786 z M 100.9461,8.2646479 q -0.005,-0.7648088 -0.38757,-1.1833865 -0.37724,-0.4185778 -1.15238,-0.4185778 -0.780312,0 -1.245398,0.4599188 -0.459919,0.4599188 -0.521931,1.1420455 z"
         style="font-style:normal;font-variant:normal;font-weight:normal;font-stretch:normal;font-family:Verdana;-inkscape-font-specification:Verdana"
         id="path1721" />
      <path
         d="m 106.96639,7.0812614 h -0.0517 q -0.21704,-0.051676 -0.42374,-0.072347 -0.20154,-0.025838 -0.48059,-0.025838 -0.44959,0 -0.86816,0.2015374 -0.41858,0.1963698 -0.80615,0.5115951 v 4.097928 h -0.97152 V 6.0218979 h 0.97152 v 0.8526584 q 0.57877,-0.4650864 1.01802,-0.6562886 0.44441,-0.1963698 0.90433,-0.1963698 0.25322,0 0.3669,0.015503 0.11369,0.010335 0.34107,0.046509 z"
         style="font-style:normal;font-variant:normal;font-weight:normal;font-stretch:normal;font-family:Verdana;-inkscape-font-specification:Verdana"
         id="path1723" />
      <path
         d="m 110.87828,11.742461 q -0.27388,0.07235 -0.59944,0.118855 -0.3204,0.04651 -0.57361,0.04651 -0.88366,0 -1.34358,-0.475422 -0.45992,-0.475422 -0.45992,-1.5244498 V 6.8383829 h -0.65629 v -0.816485 h 0.65629 V 4.3630897 h 0.97151 v 1.6588082 h 2.00504 v 0.816485 h -2.00504 v 2.630322 q 0,0.4547512 0.0207,0.7131321 0.0207,0.253214 0.1447,0.475422 0.11368,0.206705 0.31005,0.30489 0.20154,0.09302 0.60978,0.09302 0.23771,0 0.4961,-0.06718 0.25838,-0.07235 0.37207,-0.118855 h 0.0517 z"
         style="font-style:normal;font-variant:normal;font-weight:normal;font-stretch:normal;font-family:Verdana;-inkscape-font-specification:Verdana"
         id="path1725" />
      <path
         d="m 116.53683,11.794137 h -0.96634 v -0.614948 q -0.12919,0.08785 -0.3514,0.248046 -0.21704,0.155029 -0.42375,0.248047 -0.24288,0.118855 -0.5581,0.196369 -0.31523,0.08268 -0.73897,0.08268 -0.78031,0 -1.32291,-0.516762 -0.54261,-0.516763 -0.54261,-1.317745 0,-0.6562887 0.27906,-1.0593636 0.28422,-0.4082425 0.80615,-0.6407857 0.52709,-0.2325432 1.26607,-0.3152252 0.73897,-0.082682 1.58646,-0.1240231 V 7.8305672 q 0,-0.3307281 -0.11886,-0.5477684 Q 115.33794,7.0657585 115.1209,6.9417354 114.9142,6.82288 114.62481,6.781539 114.33542,6.740198 114.0202,6.740198 q -0.38241,0 -0.85266,0.1033525 -0.47025,0.098185 -0.97151,0.2893871 h -0.0517 V 6.1459209 q 0.28422,-0.077514 0.82165,-0.1705317 0.53744,-0.093017 1.05937,-0.093017 0.60978,0 1.05936,0.1033525 0.45475,0.098185 0.78548,0.3410634 0.32556,0.2377108 0.49609,0.6149475 0.17053,0.3772368 0.17053,0.9353405 z M 115.57049,10.37304 V 8.7659077 q -0.44442,0.025838 -1.04903,0.077514 -0.59945,0.051676 -0.95085,0.1498612 -0.41857,0.1188554 -0.67695,0.3720691 -0.25839,0.2480461 -0.25839,0.6872946 0,0.496092 0.29973,0.749306 0.29972,0.248046 0.91467,0.248046 0.51159,0 0.93534,-0.19637 0.42374,-0.201538 0.78548,-0.480589 z"
         style="font-style:normal;font-variant:normal;font-weight:normal;font-stretch:normal;font-family:Verdana;-inkscape-font-specification:Verdana"
         id="path1727" />
      <path
         d="m 122.00935,7.0812614 h -0.0517 q -0.21704,-0.051676 -0.42374,-0.072347 -0.20154,-0.025838 -0.48059,-0.025838 -0.44958,0 -0.86816,0.2015374 -0.41858,0.1963698 -0.80615,0.5115951 v 4.097928 h -0.97152 V 6.0218979 h 0.97152 v 0.8526584 q 0.57877,-0.4650864 1.01802,-0.6562886 0.44442,-0.1963698 0.90434,-0.1963698 0.25321,0 0.3669,0.015503 0.11368,0.010335 0.34106,0.046509 z"
         style="font-style:normal;font-variant:normal;font-weight:normal;font-stretch:normal;font-family:Verdana;-inkscape-font-specification:Verdana"
         id="path1729" />
      <path
         d="m 123.96788,5.0555517 h -1.09554 V 4.0478644 h 1.09554 z m -0.062,6.7385853 h -0.97151 V 6.0218979 h 0.97151 z"
         style="font-style:normal;font-variant:normal;font-weight:normal;font-stretch:normal;font-family:Verdana;-inkscape-font-specification:Verdana"
         id="path1731" />
      <path
         d="m 130.31373,11.794137 h -0.96635 v -0.614948 q -0.12919,0.08785 -0.3514,0.248046 -0.21704,0.155029 -0.42374,0.248047 -0.24288,0.118855 -0.55811,0.196369 -0.31522,0.08268 -0.73897,0.08268 -0.78031,0 -1.32291,-0.516762 -0.5426,-0.516763 -0.5426,-1.317745 0,-0.6562887 0.27905,-1.0593636 0.28422,-0.4082425 0.80615,-0.6407857 0.5271,-0.2325432 1.26607,-0.3152252 0.73897,-0.082682 1.58646,-0.1240231 V 7.8305672 q 0,-0.3307281 -0.11886,-0.5477684 -0.11368,-0.2170403 -0.33072,-0.3410634 -0.20671,-0.1188554 -0.4961,-0.1601964 -0.28938,-0.041341 -0.60461,-0.041341 -0.3824,0 -0.85266,0.1033525 -0.47025,0.098185 -0.97151,0.2893871 h -0.0517 V 6.1459209 q 0.28422,-0.077514 0.82166,-0.1705317 0.53743,-0.093017 1.05936,-0.093017 0.60978,0 1.05936,0.1033525 0.45475,0.098185 0.78548,0.3410634 0.32556,0.2377108 0.49609,0.6149475 0.17054,0.3772368 0.17054,0.9353405 z M 129.34738,10.37304 V 8.7659077 q -0.44442,0.025838 -1.04903,0.077514 -0.59944,0.051676 -0.95084,0.1498612 -0.41858,0.1188554 -0.67696,0.3720691 -0.25838,0.2480461 -0.25838,0.6872946 0,0.496092 0.29972,0.749306 0.29972,0.248046 0.91467,0.248046 0.5116,0 0.93534,-0.19637 0.42375,-0.201538 0.78548,-0.480589 z"
         style="font-style:normal;font-variant:normal;font-weight:normal;font-stretch:normal;font-family:Verdana;-inkscape-font-specification:Verdana"
         id="path1733" />
      <path
         d="m 137.01097,11.794137 h -0.97151 V 8.5075264 q 0,-0.3979073 -0.0465,-0.7441383 -0.0465,-0.3513986 -0.17053,-0.5477684 -0.12919,-0.2170404 -0.37207,-0.3203929 -0.24288,-0.1085202 -0.63045,-0.1085202 -0.39791,0 -0.83199,0.1963699 -0.43408,0.1963698 -0.83199,0.5012598 v 4.3098007 h -0.97151 V 6.0218979 h 0.97151 v 0.6407857 q 0.45475,-0.3772368 0.94051,-0.5891095 0.48576,-0.2118727 0.99735,-0.2118727 0.93534,0 1.42627,0.5632714 0.49092,0.5632713 0.49092,1.6226348 z"
         style="font-style:normal;font-variant:normal;font-weight:normal;font-stretch:normal;font-family:Verdana;-inkscape-font-specification:Verdana"
         id="path1735" />
    </g>
    <g
       aria-label="Authoritarian"
       transform="matrix(0.99991563,0,0,1.0020693,-26.513949,157.65695)"
       id="text847-5"
       style="font-style:normal;font-weight:normal;font-size:10.5833px;line-height:1.25;font-family:sans-serif;text-align:start;letter-spacing:0px;word-spacing:0px;white-space:pre;shape-inside:url(#rect849-6);fill:#000000;fill-opacity:1;stroke:none">
      <path
         d="M 87.815163,11.794137 H 86.724794 L 85.97032,9.6495719 h -3.327951 l -0.754474,2.1445651 h -1.038693 l 2.800854,-7.6945963 h 1.364253 z M 85.655095,8.7710753 84.306344,4.9935401 82.952426,8.7710753 Z"
         style="font-style:normal;font-variant:normal;font-weight:normal;font-stretch:normal;font-family:Verdana;-inkscape-font-specification:Verdana"
         id="path1747" />
      <path
         d="m 93.639078,11.794137 h -0.971514 v -0.640786 q -0.490924,0.387572 -0.940508,0.594277 -0.449583,0.206705 -0.992184,0.206705 -0.909502,0 -1.41593,-0.552936 -0.506427,-0.558103 -0.506427,-1.6329697 V 6.0218979 h 0.971514 v 3.2866106 q 0,0.4392483 0.04134,0.7544735 0.04134,0.310058 0.175699,0.532266 0.139526,0.227375 0.361734,0.330728 0.222208,0.103352 0.645953,0.103352 0.377237,0 0.821653,-0.19637 0.449583,-0.196369 0.837155,-0.501259 V 6.0218979 h 0.971514 z"
         style="font-style:normal;font-variant:normal;font-weight:normal;font-stretch:normal;font-family:Verdana;-inkscape-font-specification:Verdana"
         id="path1749" />
      <path
         d="m 98.548323,11.742461 q -0.273884,0.07235 -0.599444,0.118855 -0.320393,0.04651 -0.573607,0.04651 -0.883664,0 -1.343583,-0.475422 Q 95.57177,10.956981 95.57177,9.9079532 V 6.8383829 H 94.915482 V 6.0218979 H 95.57177 V 4.3630897 h 0.971514 v 1.6588082 h 2.005039 v 0.816485 h -2.005039 v 2.630322 q 0,0.4547512 0.02067,0.7131321 0.02067,0.253214 0.144693,0.475422 0.113688,0.206705 0.310058,0.30489 0.201537,0.09302 0.60978,0.09302 0.237711,0 0.496092,-0.06718 0.258381,-0.07235 0.372069,-0.118855 h 0.05168 z"
         style="font-style:normal;font-variant:normal;font-weight:normal;font-stretch:normal;font-family:Verdana;-inkscape-font-specification:Verdana"
         id="path1751" />
      <path
         d="m 104.54794,11.794137 h -0.97152 V 8.5075264 q 0,-0.3979073 -0.0465,-0.7441383 -0.0465,-0.3513986 -0.17054,-0.5477684 -0.12919,-0.2170404 -0.37207,-0.3203929 -0.24287,-0.1085202 -0.63045,-0.1085202 -0.3979,0 -0.83198,0.1963699 -0.43408,0.1963698 -0.83199,0.5012598 V 11.794137 H 99.721375 V 3.7533097 h 0.971515 v 2.9093739 q 0.45475,-0.3772368 0.94051,-0.5891095 0.48575,-0.2118727 0.99735,-0.2118727 0.93534,0 1.42626,0.5632714 0.49093,0.5632713 0.49093,1.6226348 z"
         style="font-style:normal;font-variant:normal;font-weight:normal;font-stretch:normal;font-family:Verdana;-inkscape-font-specification:Verdana"
         id="path1753" />
      <path
         d="m 111.3382,8.9106012 q 0,1.4107618 -0.72347,2.2272468 -0.72347,0.816485 -1.93786,0.816485 -1.22473,0 -1.94819,-0.816485 -0.7183,-0.816485 -0.7183,-2.2272468 0,-1.4107621 0.7183,-2.2272471 0.72346,-0.8216527 1.94819,-0.8216527 1.21439,0 1.93786,0.8216527 0.72347,0.816485 0.72347,2.2272471 z m -1.00252,0 q 0,-1.121375 -0.43925,-1.6639758 -0.43925,-0.5477684 -1.21956,-0.5477684 -0.79064,0 -1.22989,0.5477684 -0.43408,0.5426008 -0.43408,1.6639758 0,1.0852017 0.43924,1.6484728 0.43925,0.558104 1.22473,0.558104 0.77515,0 1.21439,-0.552936 0.44442,-0.558104 0.44442,-1.6536408 z"
         style="font-style:normal;font-variant:normal;font-weight:normal;font-stretch:normal;font-family:Verdana;-inkscape-font-specification:Verdana"
         id="path1755" />
      <path
         d="m 116.44381,7.0812614 h -0.0517 q -0.21704,-0.051676 -0.42375,-0.072347 -0.20154,-0.025838 -0.48059,-0.025838 -0.44958,0 -0.86816,0.2015374 -0.41858,0.1963698 -0.80615,0.5115951 v 4.097928 h -0.97151 V 6.0218979 h 0.97151 v 0.8526584 q 0.57878,-0.4650864 1.01802,-0.6562886 0.44442,-0.1963698 0.90434,-0.1963698 0.25321,0 0.3669,0.015503 0.11369,0.010335 0.34106,0.046509 z"
         style="font-style:normal;font-variant:normal;font-weight:normal;font-stretch:normal;font-family:Verdana;-inkscape-font-specification:Verdana"
         id="path1757" />
      <path
         d="m 118.40235,5.0555517 h -1.09554 V 4.0478644 h 1.09554 z m -0.062,6.7385853 h -0.97151 V 6.0218979 h 0.97151 z"
         style="font-style:normal;font-variant:normal;font-weight:normal;font-stretch:normal;font-family:Verdana;-inkscape-font-specification:Verdana"
         id="path1759" />
      <path
         d="m 123.25991,11.742461 q -0.27388,0.07235 -0.59944,0.118855 -0.32039,0.04651 -0.57361,0.04651 -0.88366,0 -1.34358,-0.475422 -0.45992,-0.475422 -0.45992,-1.5244498 V 6.8383829 h -0.65629 v -0.816485 h 0.65629 V 4.3630897 h 0.97151 v 1.6588082 h 2.00504 v 0.816485 h -2.00504 v 2.630322 q 0,0.4547512 0.0207,0.7131321 0.0207,0.253214 0.1447,0.475422 0.11369,0.206705 0.31006,0.30489 0.20153,0.09302 0.60978,0.09302 0.23771,0 0.49609,-0.06718 0.25838,-0.07235 0.37207,-0.118855 h 0.0517 z"
         style="font-style:normal;font-variant:normal;font-weight:normal;font-stretch:normal;font-family:Verdana;-inkscape-font-specification:Verdana"
         id="path1761" />
      <path
         d="m 128.91847,11.794137 h -0.96635 v -0.614948 q -0.12919,0.08785 -0.3514,0.248046 -0.21704,0.155029 -0.42374,0.248047 -0.24288,0.118855 -0.55811,0.196369 -0.31522,0.08268 -0.73897,0.08268 -0.78031,0 -1.32291,-0.516762 -0.5426,-0.516763 -0.5426,-1.317745 0,-0.6562887 0.27905,-1.0593636 0.28422,-0.4082425 0.80615,-0.6407857 0.5271,-0.2325432 1.26607,-0.3152252 0.73897,-0.082682 1.58646,-0.1240231 V 7.8305672 q 0,-0.3307281 -0.11886,-0.5477684 -0.11368,-0.2170403 -0.33072,-0.3410634 -0.20671,-0.1188554 -0.4961,-0.1601964 -0.28938,-0.041341 -0.60461,-0.041341 -0.3824,0 -0.85266,0.1033525 -0.47025,0.098185 -0.97151,0.2893871 h -0.0517 V 6.1459209 q 0.28422,-0.077514 0.82166,-0.1705317 0.53743,-0.093017 1.05936,-0.093017 0.60978,0 1.05936,0.1033525 0.45475,0.098185 0.78548,0.3410634 0.32556,0.2377108 0.49609,0.6149475 0.17054,0.3772368 0.17054,0.9353405 z M 127.95212,10.37304 V 8.7659077 q -0.44442,0.025838 -1.04903,0.077514 -0.59944,0.051676 -0.95084,0.1498612 -0.41858,0.1188554 -0.67696,0.3720691 -0.25838,0.2480461 -0.25838,0.6872946 0,0.496092 0.29972,0.749306 0.29972,0.248046 0.91467,0.248046 0.5116,0 0.93534,-0.19637 0.42375,-0.201538 0.78548,-0.480589 z"
         style="font-style:normal;font-variant:normal;font-weight:normal;font-stretch:normal;font-family:Verdana;-inkscape-font-specification:Verdana"
         id="path1763" />
      <path
         d="m 134.39098,7.0812614 h -0.0517 q -0.21704,-0.051676 -0.42375,-0.072347 -0.20153,-0.025838 -0.48059,-0.025838 -0.44958,0 -0.86816,0.2015374 -0.41858,0.1963698 -0.80615,0.5115951 v 4.097928 h -0.97151 V 6.0218979 h 0.97151 v 0.8526584 q 0.57878,-0.4650864 1.01802,-0.6562886 0.44442,-0.1963698 0.90434,-0.1963698 0.25321,0 0.3669,0.015503 0.11369,0.010335 0.34106,0.046509 z"
         style="font-style:normal;font-variant:normal;font-weight:normal;font-stretch:normal;font-family:Verdana;-inkscape-font-specification:Verdana"
         id="path1765" />
      <path
         d="m 136.34951,5.0555517 h -1.09554 V 4.0478644 h 1.09554 z m -0.062,6.7385853 h -0.97151 V 6.0218979 h 0.97151 z"
         style="font-style:normal;font-variant:normal;font-weight:normal;font-stretch:normal;font-family:Verdana;-inkscape-font-specification:Verdana"
         id="path1767" />
      <path
         d="m 142.69536,11.794137 h -0.96635 v -0.614948 q -0.12919,0.08785 -0.35139,0.248046 -0.21705,0.155029 -0.42375,0.248047 -0.24288,0.118855 -0.5581,0.196369 -0.31523,0.08268 -0.73897,0.08268 -0.78032,0 -1.32292,-0.516762 -0.5426,-0.516763 -0.5426,-1.317745 0,-0.6562887 0.27905,-1.0593636 0.28422,-0.4082425 0.80615,-0.6407857 0.5271,-0.2325432 1.26607,-0.3152252 0.73897,-0.082682 1.58646,-0.1240231 V 7.8305672 q 0,-0.3307281 -0.11885,-0.5477684 -0.11369,-0.2170403 -0.33073,-0.3410634 -0.2067,-0.1188554 -0.49609,-0.1601964 -0.28939,-0.041341 -0.60461,-0.041341 -0.38241,0 -0.85266,0.1033525 -0.47026,0.098185 -0.97152,0.2893871 h -0.0517 V 6.1459209 q 0.28422,-0.077514 0.82165,-0.1705317 0.53743,-0.093017 1.05936,-0.093017 0.60978,0 1.05937,0.1033525 0.45475,0.098185 0.78548,0.3410634 0.32556,0.2377108 0.49609,0.6149475 0.17053,0.3772368 0.17053,0.9353405 z M 141.72901,10.37304 V 8.7659077 q -0.44441,0.025838 -1.04902,0.077514 -0.59945,0.051676 -0.95085,0.1498612 -0.41858,0.1188554 -0.67696,0.3720691 -0.25838,0.2480461 -0.25838,0.6872946 0,0.496092 0.29972,0.749306 0.29973,0.248046 0.91467,0.248046 0.5116,0 0.93534,-0.19637 0.42375,-0.201538 0.78548,-0.480589 z"
         style="font-style:normal;font-variant:normal;font-weight:normal;font-stretch:normal;font-family:Verdana;-inkscape-font-specification:Verdana"
         id="path1769" />
      <path
         d="m 149.3926,11.794137 h -0.97151 V 8.5075264 q 0,-0.3979073 -0.0465,-0.7441383 -0.0465,-0.3513986 -0.17053,-0.5477684 -0.12919,-0.2170404 -0.37207,-0.3203929 -0.24288,-0.1085202 -0.63045,-0.1085202 -0.39791,0 -0.83199,0.1963699 -0.43408,0.1963698 -0.83199,0.5012598 v 4.3098007 h -0.97151 V 6.0218979 h 0.97151 v 0.6407857 q 0.45475,-0.3772368 0.94051,-0.5891095 0.48576,-0.2118727 0.99735,-0.2118727 0.93534,0 1.42627,0.5632714 0.49092,0.5632713 0.49092,1.6226348 z"
         style="font-style:normal;font-variant:normal;font-weight:normal;font-stretch:normal;font-family:Verdana;-inkscape-font-specification:Verdana"
         id="path1771" />
    </g>
    <g
       aria-label="Left"
       transform="matrix(0.55583527,-0.8329812,0.83119096,0.55703244,-39.329487,185.6905)"
       id="text847-7"
       style="font-style:normal;font-weight:normal;font-size:10.5833px;line-height:1.25;font-family:sans-serif;letter-spacing:0px;word-spacing:0px;white-space:pre;shape-inside:url(#rect849-4);fill:#000000;fill-opacity:1;stroke:none">
      <path
         d="M 86.616274,11.794137 H 81.748369 V 4.0995407 h 1.02319 v 6.7850943 h 3.844715 z"
         style="font-style:normal;font-variant:normal;font-weight:normal;font-stretch:normal;font-family:Verdana;-inkscape-font-specification:Verdana"
         id="path1738" />
      <path
         d="m 92.39368,9.0087862 h -4.252956 q 0,0.5322655 0.160196,0.9301728 0.160196,0.39274 0.439248,0.645953 0.268717,0.248046 0.635618,0.372069 0.37207,0.124023 0.816485,0.124023 0.58911,0 1.183387,-0.232543 0.599445,-0.237711 0.852658,-0.465086 h 0.05168 v 1.059363 q -0.490925,0.206705 -1.00252,0.346231 -0.511595,0.139526 -1.074866,0.139526 -1.436601,0 -2.24275,-0.775144 -0.80615,-0.780311 -0.80615,-2.211744 0,-1.4159297 0.769976,-2.2479176 0.775144,-0.831988 2.036045,-0.831988 1.167884,0 1.798334,0.6821268 0.635618,0.6821267 0.635618,1.93786 z M 91.448005,8.2646479 q -0.0052,-0.7648088 -0.387572,-1.1833865 -0.377237,-0.4185778 -1.152381,-0.4185778 -0.780312,0 -1.245398,0.4599188 -0.459919,0.4599188 -0.52193,1.1420455 z"
         style="font-style:normal;font-variant:normal;font-weight:normal;font-stretch:normal;font-family:Verdana;-inkscape-font-specification:Verdana"
         id="path1740" />
      <path
         d="m 96.972198,4.6938178 h -0.05168 q -0.160197,-0.046509 -0.418578,-0.093017 -0.258381,-0.051676 -0.454751,-0.051676 -0.625283,0 -0.909503,0.2790519 -0.279051,0.2738842 -0.279051,0.997352 v 0.1963698 h 1.751825 v 0.816485 h -1.72082 V 11.794137 H 93.918131 V 6.8383829 h -0.656289 v -0.816485 h 0.656289 V 5.8306957 q 0,-1.0283577 0.511595,-1.5761262 0.511595,-0.552936 1.477941,-0.552936 0.32556,0 0.583942,0.031006 0.263549,0.031006 0.480589,0.072347 z"
         style="font-style:normal;font-variant:normal;font-weight:normal;font-stretch:normal;font-family:Verdana;-inkscape-font-specification:Verdana"
         id="path1742" />
      <path
         d="m 100.58437,11.742461 q -0.27389,0.07235 -0.599446,0.118855 -0.320393,0.04651 -0.573607,0.04651 -0.883664,0 -1.343583,-0.475422 -0.459919,-0.475422 -0.459919,-1.5244498 V 6.8383829 h -0.656288 v -0.816485 h 0.656288 V 4.3630897 h 0.971514 v 1.6588082 h 2.005041 v 0.816485 h -2.005041 v 2.630322 q 0,0.4547512 0.02067,0.7131321 0.02067,0.253214 0.144693,0.475422 0.113688,0.206705 0.310058,0.30489 0.201537,0.09302 0.60978,0.09302 0.237711,0 0.496089,-0.06718 0.25838,-0.07235 0.37207,-0.118855 h 0.0517 z"
         style="font-style:normal;font-variant:normal;font-weight:normal;font-stretch:normal;font-family:Verdana;-inkscape-font-specification:Verdana"
         id="path1744" />
    </g>
    <g
       aria-label="Right"
       transform="matrix(0.51247386,0.86045384,-0.85860456,0.51357764,120.10228,32.059809)"
       id="text847-7-6"
       style="font-style:normal;font-weight:normal;font-size:10.5833px;line-height:1.25;font-family:sans-serif;letter-spacing:0px;word-spacing:0px;white-space:pre;shape-inside:url(#rect849-4-2);fill:#000000;fill-opacity:1;stroke:none">
      <path
         d="m 88.114885,11.794137 h -1.32808 L 84.213327,8.7349019 h -1.441768 v 3.0592351 h -1.02319 V 4.0995407 h 2.1549 q 0.69763,0 1.162716,0.093017 0.465087,0.08785 0.837156,0.3203929 0.418578,0.2635489 0.651121,0.6666238 0.237711,0.3979073 0.237711,1.0128549 0,0.8319879 -0.418578,1.3952592 -0.418578,0.5581037 -1.152381,0.8423232 z M 85.722274,6.2647763 q 0,-0.3307281 -0.118855,-0.5839418 -0.113688,-0.2583813 -0.382405,-0.4340806 -0.222208,-0.1498612 -0.527098,-0.2067051 -0.30489,-0.062011 -0.7183,-0.062011 h -1.204057 v 2.9042062 h 1.033526 q 0.485756,0 0.84749,-0.082682 0.361734,-0.08785 0.614948,-0.3203929 0.232543,-0.2170403 0.341063,-0.4960921 0.113688,-0.2842195 0.113688,-0.7183002 z"
         style="font-style:normal;font-variant:normal;font-weight:normal;font-stretch:normal;font-family:Verdana;-inkscape-font-specification:Verdana"
         id="path1774" />
      <path
         d="M 90.073416,5.0555517 H 88.977879 V 4.0478644 h 1.095537 z m -0.06201,6.7385853 H 89.039891 V 6.0218979 h 0.971514 z"
         style="font-style:normal;font-variant:normal;font-weight:normal;font-stretch:normal;font-family:Verdana;-inkscape-font-specification:Verdana"
         id="path1776" />
      <path
         d="m 96.615632,11.137848 q 0,1.467606 -0.666624,2.154901 -0.666624,0.687294 -2.051548,0.687294 -0.459919,0 -0.899167,-0.06718 -0.434081,-0.06201 -0.857826,-0.180867 v -0.992184 h 0.05168 q 0.237711,0.09302 0.754474,0.227375 0.516762,0.139526 1.033525,0.139526 0.496092,0 0.821653,-0.118855 0.32556,-0.118856 0.506427,-0.330728 0.180867,-0.201538 0.258381,-0.485757 0.07752,-0.28422 0.07752,-0.635618 v -0.527098 q -0.439249,0.351398 -0.842323,0.527098 -0.397908,0.170531 -1.018023,0.170531 -1.033525,0 -1.643305,-0.744138 -0.604613,-0.749306 -0.604613,-2.1083917 0,-0.7441382 0.206706,-1.2815714 0.211872,-0.5426008 0.573606,-0.9353404 0.335896,-0.3669015 0.816485,-0.568439 0.480589,-0.2067051 0.956011,-0.2067051 0.50126,0 0.837156,0.1033526 0.341063,0.098185 0.7183,0.30489 l 0.06201,-0.2480461 h 0.909503 z M 95.644118,10.207676 V 7.0605909 Q 95.256546,6.8848915 94.92065,6.8125448 q -0.330728,-0.077514 -0.661456,-0.077514 -0.800982,0 -1.260901,0.5374332 -0.459919,0.5374331 -0.459919,1.5606232 0,0.9715139 0.341063,1.4727732 0.341064,0.50126 1.131711,0.50126 0.423745,0 0.84749,-0.160196 0.428914,-0.165364 0.78548,-0.439248 z"
         style="font-style:normal;font-variant:normal;font-weight:normal;font-stretch:normal;font-family:Verdana;-inkscape-font-specification:Verdana"
         id="path1778" />
      <path
         d="M 103.35422,11.794137 H 102.3827 V 8.5075264 q 0,-0.3979073 -0.0465,-0.7441383 -0.0465,-0.3513986 -0.17053,-0.5477684 -0.12919,-0.2170404 -0.37207,-0.3203929 -0.24288,-0.1085202 -0.63045,-0.1085202 -0.3979,0 -0.83199,0.1963699 -0.434076,0.1963698 -0.831983,0.5012598 V 11.794137 H 98.527653 V 3.7533097 h 0.971514 v 2.9093739 q 0.454751,-0.3772368 0.940503,-0.5891095 0.48576,-0.2118727 0.99736,-0.2118727 0.93534,0 1.42626,0.5632714 0.49093,0.5632713 0.49093,1.6226348 z"
         style="font-style:normal;font-variant:normal;font-weight:normal;font-stretch:normal;font-family:Verdana;-inkscape-font-specification:Verdana"
         id="path1780" />
      <path
         d="m 108.22212,11.742461 q -0.27388,0.07235 -0.59944,0.118855 -0.3204,0.04651 -0.57361,0.04651 -0.88366,0 -1.34358,-0.475422 -0.45992,-0.475422 -0.45992,-1.5244498 V 6.8383829 h -0.65629 v -0.816485 h 0.65629 V 4.3630897 h 0.97151 v 1.6588082 h 2.00504 v 0.816485 h -2.00504 v 2.630322 q 0,0.4547512 0.0207,0.7131321 0.0207,0.253214 0.1447,0.475422 0.11368,0.206705 0.31005,0.30489 0.20154,0.09302 0.60978,0.09302 0.23771,0 0.4961,-0.06718 0.25838,-0.07235 0.37206,-0.118855 h 0.0517 z"
         style="font-style:normal;font-variant:normal;font-weight:normal;font-stretch:normal;font-family:Verdana;-inkscape-font-specification:Verdana"
         id="path1782" />
    </g>
    <path
       style="fill:none;stroke:#000000;stroke-width:0.529692;stroke-linecap:butt;stroke-linejoin:miter;stroke-miterlimit:4;stroke-dasharray:none;stroke-opacity:1"
       d="m 88.690311,109.28986 -0.0466,48.93652"
       id="path1000"
       sodipodi:nodetypes="cc" />
    <path
       style="fill:none;stroke:#000000;stroke-width:0.529692;stroke-linecap:butt;stroke-linejoin:miter;stroke-miterlimit:4;stroke-dasharray:none;stroke-opacity:1"
       d="M 88.690311,109.28986 46.282673,84.857085"
       id="path1002"
       sodipodi:nodetypes="cc" />
    <path
       style="fill:none;stroke:#000000;stroke-width:0.529692;stroke-linecap:butt;stroke-linejoin:miter;stroke-miterlimit:4;stroke-dasharray:none;stroke-opacity:1"
       d="M 88.690311,109.28986 130.77845,84.85709"
       id="path1004"
       sodipodi:nodetypes="cc" />
  </g>
</svg>
